<?xml version="1.0" encoding="UTF-8" standalone="no"?><!DOCTYPE svg PUBLIC "-//W3C//DTD SVG 1.1//EN" "http://www.w3.org/Graphics/SVG/1.1/DTD/svg11.dtd"><svg width="100%" height="100%" viewBox="0 0 67 67" version="1.1" xmlns="http://www.w3.org/2000/svg" xmlns:xlink="http://www.w3.org/1999/xlink" xml:space="preserve" xmlns:serif="http://www.serif.com/" style="fill-rule:evenodd;clip-rule:evenodd;stroke-linejoin:round;stroke-miterlimit:2;"><path id="archaeological-site" d="M16.667,4.167l-0,4.166l4.166,0c2.496,0 3.505,4.346 3.907,7.943c-4.052,-3.151 -7.969,-4.278 -11.329,-3.646c-4.292,0.808 -7.161,4.763 -7.161,9.245c-0,3.508 1.3,6.579 3.516,9.766c1.936,2.785 4.666,6 8.073,9.895c1.526,5.663 4.337,10.849 7.161,13.672l0,3.125l-4.167,2.084l0,2.083l25,0l0,-2.083l-4.166,-2.084l-0,-3.125c2.823,-2.823 5.634,-8.009 7.161,-13.672c3.407,-3.895 6.137,-7.11 8.073,-9.895c2.215,-3.187 3.516,-6.258 3.516,-9.766c-0,-4.482 -2.869,-8.437 -7.162,-9.245c-3.359,-0.632 -7.277,0.495 -11.328,3.646c0.402,-3.597 1.411,-7.943 3.906,-7.943l4.167,0l-0,-4.166l-33.333,-0Zm-2.605,12.63c2.125,-0.4 5.669,0.422 9.766,4.167c-4.646,0.576 -7.161,4.659 -7.161,12.369c-0,0.13 -0.002,0.26 -0,0.391c-1.419,-1.649 -2.6,-3.109 -3.516,-4.427c-1.951,-2.808 -2.734,-4.869 -2.734,-7.422c-0,-2.918 1.295,-4.636 3.645,-5.078Zm36.459,-0c0.784,-0.113 1.496,-0.111 2.083,-0c2.35,0.442 3.646,2.16 3.646,5.078c-0,2.553 -0.783,4.614 -2.734,7.422c-0.917,1.318 -2.097,2.778 -3.516,4.427c0.002,-0.131 -0,-0.261 -0,-0.391c-0,-7.71 -2.516,-11.793 -7.161,-12.369c2.964,-2.709 5.632,-3.872 7.682,-4.167Z" style="fill:#734a08;fill-rule:nonzero;"/></svg>